# xmcd CD database file
#
# Track frame offsets:
#	150
#	20232
#	33796
#	52341
#	63299
#	79274
#	87792
#	96206
#	113900
#	146117
#	161982
#	186040
#
# Disc length: 2753 seconds
#
# Revision: 0
# Processed by: cddbd v1.5.1PL0 Copyright (c) Steve Scherf et al.
# Submitted via: CDex 1.60beta1
#
DISCID=a70abf0c
DTITLE=Take One - Niles North High School Vocal Jazz Ensemble - Volume One
DYEAR=1996
DGENRE=Jazz
TTITLE0=Night Has A Thousand Eyes
TTITLE1=Is You Is Or Is You Ain't (Ma' Baby)
TTITLE2=Got To Get You Into My Life
TTITLE3=Just The Way You Are
TTITLE4=Teach Me To Swing
TTITLE5=You're My Everything
TTITLE6=It's Only A Paper Moon
TTITLE7=St. Thomas Way
TTITLE8=Red Clay
TTITLE9=What A Wonderful World
TTITLE10=Dare The Moon
TTITLE11=Mister One-Take
EXTD=YEAR: 1996
EXTT0=
EXTT1=
EXTT2=
EXTT3=
EXTT4=
EXTT5=
EXTT6=
EXTT7=
EXTT8=
EXTT9=
EXTT10=
EXTT11=
PLAYORDER=
